<?xml version="1.0" encoding="UTF-8" standalone="no"?>
<!DOCTYPE svg PUBLIC "-//W3C//DTD SVG 1.1//EN" "http://www.w3.org/Graphics/SVG/1.1/DTD/svg11.dtd">
<svg width="100%" height="100%" viewBox="0 0 1000 1000" version="1.1" xmlns="http://www.w3.org/2000/svg" xmlns:xlink="http://www.w3.org/1999/xlink" xml:space="preserve" xmlns:serif="http://www.serif.com/" style="fill-rule:evenodd;clip-rule:evenodd;stroke-linejoin:round;stroke-miterlimit:2;">
    <path d="M1000.07,251.159C1000.07,113.459 888.27,1.663 750.569,1.663L251.576,1.663C113.875,1.663 2.08,113.459 2.08,251.159L2.08,750.152C2.08,887.853 113.875,999.649 251.576,999.649L750.569,999.649C888.27,999.649 1000.07,887.853 1000.07,750.152L1000.07,251.159Z"/>
    <g transform="matrix(0.559312,0,0,0.63488,204.974,161.638)">
        <path d="M443.751,142.054C443.751,118.105 421.681,98.662 394.497,98.662L279.904,98.662C252.72,98.662 230.65,118.105 230.65,142.054L230.65,612.431C230.65,636.38 252.72,655.823 279.904,655.823L394.497,655.823C421.681,655.823 443.751,636.38 443.751,612.431L443.751,142.054Z" style="fill:white;"/>
    </g>
    <g transform="matrix(0.444056,0.769128,-0.769128,0.444056,952.063,-100.117)">
        <path d="M287.294,969.731C287.294,969.731 350.236,860.712 354.708,852.967C368.813,861.01 384.772,865.241 401.015,865.241C452.61,865.241 494.499,823.353 494.499,771.758C494.499,765.393 493.849,759.044 492.559,752.812C492.559,752.812 624.44,724.78 624.44,724.78C627.688,740.228 629.326,755.971 629.326,771.758C629.326,897.766 527.023,1000.07 401.015,1000.07C361.105,1000.07 321.896,989.607 287.294,969.731L287.294,969.731Z" style="fill:white;"/>
    </g>
</svg>
